<svg version="1.1" baseProfile="full" xmlns="http://www.w3.org/2000/svg">
  <defs>
    <symbol id="file" viewBox="0 0 50 66">
      <path d="M35,0c2,0,2,0,2,2v11h11c2,0,2,0,2,2V62c0,4,0,4,-4,4
        H4c-4,0,-4,0,-4,-4V4c0,-4,0,-4,4,-4Z" fill="#e9e9e0"/>
      <path d="M37,0h-2c2,0,2,0,2,2v11h11c2,0,2,0,2,2v-2Z" fill="#d9d7ca"/>
    </symbol>
    <symbol id="folder" viewBox="0 0 64 60">
      <path d="M60,4H24C24,1.792,22.209,0,20,0H4,C1.791,0,0,1.792,0,4V8v6v2
        c0,2.209,1.791,4,4,4h56c2.209,0,4-1.791,4-4V8C64,5.791,62.209,4,60,4Z"
        fill="#fbd140"/>
      <path d="M56,8H8c-2.209,0-4,1.791-4,4v4c0,2.209,1.791,4,4,4h48
        c2.209,0,4-1.791,4-4v-4 C60,9.791,58.209,8,56,8Z" fill="white"/>
      <path d="M60,12H4c-2.209,0-4,1.791-4,4v40c0,2.209,1.791,4,4,4h56
        c2.209,0,4-1.791,4-4v-40 C64,13.792,62.209,12,60,12Z" fill="#fde48c"/>
    </symbol>
    <symbol id="folder-empty" viewBox="0 0 64 60">
      <path d="M60,4H24C24,1.792,22.209,0,20,0H4,C1.791,0,0,1.792,0,4V8v6v2
        c0,2.209,1.791,4,4,4h56c2.209,0,4-1.791,4-4V8C64,5.791,62.209,4,60,4Z"
        fill="#fbd140"/>
      <path d="M60,12H4c-2.209,0-4,1.791-4,4v40c0,2.209,1.791,4,4,4h56
        c2.209,0,4-1.791,4-4v-40 C64,13.792,62.209,12,60,12Z" fill="#fde48c"/>
    </symbol>
  </defs>
</svg>
