<svg version="1.1" baseProfile="full" viewBox="0 0 64 60" width="64" height="60" xmlns="http://www.w3.org/2000/svg">
  <path d="M60,4H24C24,1.792,22.209,0,20,0H4 C1.791,0,0,1.792,0,4V8v6v2c0,2.209,1.791,4,4,4h56c2.209,0,4-1.791,4-4V8C64,5.791,62.209,4,60,4Z" fill="#cca352"/>
  <path d="M56,8H8c-2.209,0-4,1.791-4,4v4c0,2.209,1.791,4,4,4h48c2.209,0,4-1.791,4-4v-4 C60,9.791,58.209,8,56,8Z" fill="#fff"/>
  <path d="M60,12H4c-2.209,0-4,1.791-4,4v40c0,2.209,1.791,4,4,4h56c2.209,0,4-1.791,4-4v-40 C64,13.792,62.209,12,60,12Z" fill="#ffcc66"/>
</svg>
